Format                                   : AVI
Format/Info                              : Audio Video Interleave
File size                                : 704 MiB
Duration                                 : 1h 37mn
Overall bit rate                         : 1 007 Kbps
Writing application                      : Lavf54.3.100

Video
ID                                       : 0
Format                                   : MPEG-4 Visual
Format profile                           : Simple@L3
Format settings, BVOP                    : No
Format settings, QPel                    : No
Format settings, GMC                     : No warppoints
Format settings, Matrix                  : Default (H.263)
Codec ID                                 : XVID
Codec ID/Hint                            : XviD
Duration                                 : 1h 37mn
Bit rate                                 : 900 Kbps
Width                                    : 640 pixels
Height                                   : 304 pixels
Display aspect ratio                     : 2.045
Frame rate                               : 23.976 fps
Color space                              : YUV
Chroma subsampling                       : 4:2:0
Bit depth                                : 8 bits
Scan type                                : Progressive
Compression mode                         : Lossy
Bits/(Pixel*Frame)                       : 0.193
Stream size                              : 630 MiB (89%)
Writing library                          : XviD 64

Audio
ID                                       : 1
Format                                   : AC-3
Format/Info                              : Audio Coding 3
Mode extension                           : CM (complete main)
Format settings, Endianness              : Big
Codec ID                                 : 2000
Duration                                 : 1h 37mn
Bit rate mode                            : Constant
Bit rate                                 : 96.0 Kbps
Channel(s)                               : 2 channels
Channel positions                        : Front: L R
Sampling rate                            : 48.0 KHz
Bit depth                                : 16 bits
Compression mode                         : Lossy
Stream size                              : 67.2 MiB (10%)
Alignment                                : Aligned on interleaves
Interleave, duration                     : 32 ms (0.77 video frame)

 
http://www.imdb.com/title/tt1409024/


Screens to see the quality:

 
http://prikachi.com/images/86/4841086P.png

 
http://prikachi.com/images/85/4841085q.png

 
http://prikachi.com/images/84/4841084a.png

 
http://prikachi.com/images/83/4841083E.png